<?xml version="1.0" encoding="utf-8"?>
<!-- Generator: Adobe Illustrator 26.0.1, SVG Export Plug-In . SVG Version: 6.00 Build 0)  -->
<svg version="1.1" id="Layer_1" xmlns="http://www.w3.org/2000/svg" xmlns:xlink="http://www.w3.org/1999/xlink" x="0px" y="0px"
	 viewBox="0 0 163.3 170.8" style="enable-background:new 0 0 163.3 170.8;" xml:space="preserve">
<style type="text/css">
	.st0{fill:#004FA4;}
</style>
<path class="st0" d="M66.4,170.7c-7.6,1.2-9.9-10.5-9.9-15.1c0-3.8,0.4-3.7-0.1-4.2c-5-5-7.5-14.4-8.9-24.8
	c-0.8-5.7-13.3-5.4-18.7-7.4c-9.3-3.4-7.3-10.3-8.1-10.7C7.1,100.6,0,96.4,0,81.9c0-15.8,27.8-28.1,48.6-38.1S70.9,11.4,70.9,2.5
	C70.9,0.9,71.3,0,72,0s1.1,1.2,1.1,2.5c0,15.7-1.6,38.6-23.5,50.4C30,63.6,18.1,68.2,18.1,81c0,13.9,23,18.3,31.9,18.2
	c0.9,0-0.5-4.9,5.2-4.9s19.9,0.8,26.4,0.8s20.6-0.8,26.4-0.8s4.4,4.9,5.2,4.9c8.9,0.2,31.9-4.3,31.9-18.2c0-12.8-11.9-17.4-31.6-28
	C91.7,41.2,90.2,18.3,90.2,2.6c0-1.3,0.4-2.5,1.1-2.5s1.1,0.9,1.1,2.5c0,8.9,1.6,31.4,22.4,41.4s48.6,22.2,48.6,38
	c0,14.5-7.2,18.7-20.8,26.5c-0.8,0.4,1.2,7.3-8.1,10.7c-5.4,2-17.9,1.7-18.7,7.4c-1.4,10.4-3.9,19.8-8.9,24.8
	c-0.5,0.5-0.1,0.5-0.1,4.2c0,4.6-2.2,16.3-9.9,15.1c-3.8-0.6-13-1-15.2-1S70.2,170.1,66.4,170.7"/>
</svg>
