<?xml version="1.0" encoding="utf-8"?>
<!-- Generator: Adobe Illustrator 26.0.1, SVG Export Plug-In . SVG Version: 6.00 Build 0)  -->
<svg version="1.1" id="Layer_1" xmlns="http://www.w3.org/2000/svg" xmlns:xlink="http://www.w3.org/1999/xlink" x="0px" y="0px"
	 viewBox="0 0 411.3 170.8" style="enable-background:new 0 0 411.3 170.8;" xml:space="preserve">
<style type="text/css">
	.st0{fill:#004FA4;}
</style>
<path class="st0" d="M66.4,170.7c-7.6,1.2-9.9-10.5-9.9-15.1c0-3.8,0.4-3.7-0.1-4.2c-5-5-7.5-14.4-9-24.8
	c-0.8-5.7-13.3-5.4-18.7-7.4c-9.3-3.4-7.3-10.3-8.1-10.7C7.1,100.6,0,96.4,0,81.9c0-15.8,27.8-28.1,48.6-38.1S70.9,11.4,70.9,2.5
	C70.9,0.9,71.3,0,72,0s1.1,1.2,1.1,2.5c0,15.7-1.6,38.6-23.5,50.4C30,63.6,18.1,68.2,18.1,81c0,13.9,23,18.3,31.9,18.2
	c0.9,0-0.5-4.9,5.2-4.9s19.9,0.8,26.4,0.8s20.6-0.8,26.4-0.8s4.3,4.9,5.2,4.9c8.9,0.2,31.9-4.3,31.9-18.2c0-12.8-11.9-17.4-31.6-28
	C91.7,41.2,90.2,18.3,90.2,2.6c0-1.3,0.4-2.5,1.1-2.5s1.1,0.9,1.1,2.5c0,8.9,1.6,31.4,22.4,41.4s48.6,22.2,48.6,38
	c0,14.5-7.2,18.7-20.8,26.5c-0.8,0.4,1.2,7.3-8.1,10.7c-5.4,2-17.9,1.7-18.7,7.4c-1.4,10.4-3.9,19.8-9,24.8
	c-0.5,0.5-0.1,0.5-0.1,4.2c0,4.6-2.2,16.3-9.9,15.1c-3.8-0.6-13-1-15.2-1S70.2,170.1,66.4,170.7"/>
<path class="st0" d="M227.6,123.8c-4.6-2.2-9.7-2.7-16-2.7h-9.9v32.7h11.1c5.2,0,10.4-0.4,14.1-1.9c5.2-2.2,8.7-6.9,8.7-14.1
	S232.4,126.2,227.6,123.8 M210,79.6h-8.3v27.9h7.8c10.9,0,18.7-2.9,18.7-15C228.2,82.7,220.5,79.5,210,79.6 M214.2,168.5h-27.9
	c-3.1,0-3.9-1.2-3.9-4.4V68.8c0-3.2,1.4-3.9,4.5-3.9h22.5c24.1,0,37.6,7.3,37.6,25.3c0,10.5-6,19.6-16.9,22v0.1
	c14.2,1.1,25,10.8,25,25.9C255.1,162.5,235.5,168.5,214.2,168.5"/>
<path class="st0" d="M327.8,68.3l-1,9c-0.3,2.7-2,3.2-5.1,3.2H284v27.1h34.6c2.9,0,3.8,1.2,3.8,3.3v8.5c0,2.6-1,3.6-3.6,3.6H284
	v41.8c0,2.7-1,3.8-3.6,3.8h-11.7c-3,0-4-0.8-4-4.1V68.6c0-2.4,1-3.8,3.4-3.8h56.5C327.6,64.9,328.2,66.1,327.8,68.3"/>
<path class="st0" d="M408.9,164.2c-9.4,4.1-19.6,6.2-29.8,6.1c-31.6,0-47.1-22.3-47.1-53.2s18.4-54.3,48.6-54.3
	c9.8-0.1,19.4,2,28.2,6.3c1.8,0.9,2.4,1.6,2.4,2.6c0,0.7-0.2,1.3-0.5,1.9l-3.5,9.4c-0.5,1.3-1.2,1.9-2.1,1.9
	c-0.6-0.1-1.1-0.3-1.6-0.6c-6.7-3.6-14.1-5.5-21.7-5.4c-20.8,0-28.9,19.2-28.9,37.3c0,23.1,10.8,37.8,29.2,37.8
	c7.5-0.1,14.8-1.7,21.6-4.8c0.6-0.3,1.2-0.5,1.8-0.6c1,0,1.8,0.8,2.4,2.2l3,8.1c0.3,0.7,0.4,1.4,0.5,2.1
	C411.3,162.6,410.7,163.5,408.9,164.2"/>
</svg>
