<svg height="226.772" viewBox="0 0 434.64532 226.772" width="434.64532" xmlns="http://www.w3.org/2000/svg" xmlns:xlink="http://www.w3.org/1999/xlink"><clipPath id="a"><path d="m0 170.079h325.984v-170.079h-325.984z"/></clipPath><g clip-path="url(#a)" fill="#004fa4" transform="matrix(1.3333333 0 0 -1.3333333 0 226.772)"><path d="m0 0c-5.718-.878-7.409 7.871-7.409 11.364 0 2.813.322 2.788-.067 3.174-3.764 3.769-5.653 10.811-6.712 18.604-.579 4.255-9.955 4.034-14.006 5.542-6.942 2.575-5.481 7.693-6.063 8.027-10.207 5.876-15.574 8.976-15.574 19.88 0 11.864 20.831 21.094 36.423 28.548 15.558 7.436 16.771 24.347 16.771 31.007 0 1.221.274 1.87.824 1.87s.827-.871.827-1.87c0-11.8-1.159-28.951-17.589-37.83-14.74-7.962-23.688-11.458-23.688-21.024 0-10.41 17.262-13.757 23.932-13.642.669.012-.389 3.657 3.935 3.657s14.954-.572 19.794-.572c4.846 0 15.475.572 19.8.572 4.323 0 3.264-3.645 3.934-3.657 6.67-.115 23.934 3.232 23.934 13.642 0 9.566-8.949 13.062-23.689 21.024-16.432 8.879-17.59 26.03-17.59 37.83 0 .999.275 1.87.825 1.87.551 0 .828-.649.828-1.87 0-6.66 1.21-23.571 16.769-31.007 15.592-7.454 36.424-16.684 36.424-28.548 0-10.904-5.37-14.004-15.574-19.88-.581-.334.88-5.452-6.061-8.027-4.056-1.508-13.429-1.287-14.01-5.542-1.06-7.793-2.946-14.835-6.713-18.604-.387-.386-.064-.361-.064-3.174 0-3.493-1.692-12.242-7.408-11.364-2.843.432-9.758.756-11.405.756-1.641 0-8.557-.324-11.398-.756" transform="translate(58.5835 21.063)"/><path d="m0 0c-3.486 1.688-7.309 2.025-12.03 2.025h-7.42v-24.509h8.319c3.936 0 7.758.337 10.569 1.461 3.934 1.688 6.519 5.173 6.519 10.567 0 5.285-2.36 8.659-5.957 10.456m-13.154 33.167h-6.296v-20.914h5.846c8.205 0 14.053 2.137 14.053 11.244 0 7.307-5.734 9.67-13.603 9.67m3.147-66.781h-20.911c-2.36 0-2.922.9-2.922 3.261v71.614c0 2.36 1.011 2.922 3.372 2.922h16.864c18.099 0 28.218-5.509 28.218-19 0-7.87-4.496-14.728-12.704-16.529v-.111c10.68-.786 18.776-8.094 18.776-19.448 0-18.211-14.729-22.709-30.693-22.709" transform="translate(179.4248 56.2505)"/><path d="m0 0-.785-6.746c-.225-2.022-1.461-2.359-3.822-2.359h-28.22v-20.352h25.971c2.136 0 2.809-.897 2.809-2.472v-6.407c0-1.912-.785-2.7-2.697-2.7h-26.083v-31.363c0-2.025-.787-2.813-2.7-2.813h-8.766c-2.252 0-3.037.564-3.037 3.037v71.951c0 1.8.785 2.809 2.586 2.809h42.386c2.133 0 2.583-.897 2.358-2.585" transform="translate(254.6191 97.8481)"/><path d="m0 0c-7.417-3.035-14.164-4.61-22.369-4.61-23.724 0-35.303 16.75-35.303 39.907 0 23.049 13.83 40.699 36.425 40.699 7.759 0 14.73-1.572 21.136-4.72 1.35-.674 1.799-1.235 1.799-1.912 0-.449-.112-.899-.336-1.462l-2.585-7.082c-.337-1.013-.901-1.462-1.574-1.462-.337 0-.788.225-1.239.449-5.62 2.925-10.679 4.049-16.299 4.049-15.628 0-21.696-14.392-21.696-27.993 0-17.313 8.093-28.331 21.921-28.331 5.395 0 10.905 1.237 16.186 3.598.564.224 1.015.448 1.351.448.788 0 1.35-.56 1.798-1.687l2.249-6.069c.224-.561.337-1.127.337-1.576 0-1.01-.449-1.685-1.801-2.246" transform="translate(315.4326 25.8979)"/></g></svg>