<?xml version="1.0" encoding="utf-8"?>
<!-- Generator: Adobe Illustrator 26.0.1, SVG Export Plug-In . SVG Version: 6.00 Build 0)  -->
<svg version="1.1" id="Layer_1" xmlns="http://www.w3.org/2000/svg" xmlns:xlink="http://www.w3.org/1999/xlink" x="0px" y="0px"
	 viewBox="0 0 434.6 226.8" style="enable-background:new 0 0 434.6 226.8;" xml:space="preserve">
<style type="text/css">
	.st0{clip-path:url(#SVGID_00000054954210938459859280000013545605209460690620_);}
	.st1{fill:#FFFFFF;}
</style>
<g>
	<defs>
		<rect id="SVGID_1_" y="0" width="434.6" height="226.8"/>
	</defs>
	<clipPath id="SVGID_00000078021153410675973820000014380956899118676876_">
		<use xlink:href="#SVGID_1_"  style="overflow:visible;"/>
	</clipPath>
	
		<g transform="matrix(1.3333333 0 0 -1.3333333 0 226.772)" style="clip-path:url(#SVGID_00000078021153410675973820000014380956899118676876_);">
		<path class="st1" d="M58.6,21.1c-5.7-0.9-7.4,7.9-7.4,11.4c0,2.8,0.3,2.8-0.1,3.2c-3.8,3.8-5.7,10.8-6.7,18.6
			c-0.6,4.3-10,4-14,5.5c-6.9,2.6-5.5,7.7-6.1,8c-10.2,5.9-15.6,9-15.6,19.9c0,11.9,20.8,21.1,36.4,28.5c15.6,7.4,16.8,24.3,16.8,31
			c0,1.2,0.3,1.9,0.8,1.9s0.8-0.9,0.8-1.9c0-11.8-1.2-29-17.6-37.8c-14.7-8-23.7-11.5-23.7-21c0-10.4,17.3-13.8,23.9-13.6
			c0.7,0-0.4,3.7,3.9,3.7s15-0.6,19.8-0.6c4.8,0,15.5,0.6,19.8,0.6c4.3,0,3.3-3.6,3.9-3.7c6.7-0.1,23.9,3.2,23.9,13.6
			c0,9.6-8.9,13.1-23.7,21c-16.4,8.9-17.6,26-17.6,37.8c0,1,0.3,1.9,0.8,1.9c0.6,0,0.8-0.6,0.8-1.9c0-6.7,1.2-23.6,16.8-31
			c15.6-7.5,36.4-16.7,36.4-28.5c0-10.9-5.4-14-15.6-19.9c-0.6-0.3,0.9-5.5-6.1-8c-4.1-1.5-13.4-1.3-14-5.5
			c-1.1-7.8-2.9-14.8-6.7-18.6c-0.4-0.4-0.1-0.4-0.1-3.2c0-3.5-1.7-12.2-7.4-11.4c-2.8,0.4-9.8,0.8-11.4,0.8
			C68.3,21.8,61.4,21.5,58.6,21.1"/>
		<path class="st1" d="M179.4,56.3c-3.5,1.7-7.3,2-12,2H160V33.8h8.3c3.9,0,7.8,0.3,10.6,1.5c3.9,1.7,6.5,5.2,6.5,10.6
			C185.4,51.1,183,54.5,179.4,56.3 M166.3,89.4H160V68.5h5.8c8.2,0,14.1,2.1,14.1,11.2C179.9,87.1,174.1,89.4,166.3,89.4
			 M169.4,22.6h-20.9c-2.4,0-2.9,0.9-2.9,3.3v71.6c0,2.4,1,2.9,3.4,2.9h16.9c18.1,0,28.2-5.5,28.2-19c0-7.9-4.5-14.7-12.7-16.5v-0.1
			c10.7-0.8,18.8-8.1,18.8-19.4C200.1,27.1,185.4,22.6,169.4,22.6"/>
		<path class="st1" d="M254.6,97.8l-0.8-6.7c-0.2-2-1.5-2.4-3.8-2.4h-28.2V68.4h26c2.1,0,2.8-0.9,2.8-2.5v-6.4
			c0-1.9-0.8-2.7-2.7-2.7h-26.1V25.4c0-2-0.8-2.8-2.7-2.8h-8.8c-2.3,0-3,0.6-3,3v72c0,1.8,0.8,2.8,2.6,2.8h42.4
			C254.4,100.4,254.8,99.5,254.6,97.8"/>
		<path class="st1" d="M315.4,25.9c-7.4-3-14.2-4.6-22.4-4.6c-23.7,0-35.3,16.8-35.3,39.9c0,23,13.8,40.7,36.4,40.7
			c7.8,0,14.7-1.6,21.1-4.7c1.3-0.7,1.8-1.2,1.8-1.9c0-0.4-0.1-0.9-0.3-1.5l-2.6-7.1c-0.3-1-0.9-1.5-1.6-1.5c-0.3,0-0.8,0.2-1.2,0.4
			c-5.6,2.9-10.7,4-16.3,4c-15.6,0-21.7-14.4-21.7-28c0-17.3,8.1-28.3,21.9-28.3c5.4,0,10.9,1.2,16.2,3.6c0.6,0.2,1,0.4,1.4,0.4
			c0.8,0,1.4-0.6,1.8-1.7l2.2-6.1c0.2-0.6,0.3-1.1,0.3-1.6C317.2,27.1,316.8,26.5,315.4,25.9"/>
	</g>
</g>
</svg>
